<svg width="45" height="150" viewBox="0 0 45 150" fill="none" xmlns="http://www.w3.org/2000/svg">
<path d="M0.964647 141.007C0.964647 138.159 1.69265 135.959 3.14865 134.407C4.60465 132.855 6.72465 132.079 9.50865 132.079C12.2926 132.079 14.4126 132.855 15.8686 134.407C17.3246 135.959 18.0526 138.159 18.0526 141.007C18.0526 143.855 17.3326 146.055 15.8926 147.607C14.4366 149.143 12.3086 149.911 9.50865 149.911C6.70865 149.911 4.58865 149.143 3.14865 147.607C1.69265 146.055 0.964647 143.855 0.964647 141.007ZM4.92465 141.007C4.92465 142.143 5.26865 143.007 5.95665 143.599C6.64465 144.191 7.57265 144.487 8.74065 144.487H10.2766C11.4446 144.487 12.3726 144.191 13.0606 143.599C13.7486 143.007 14.0926 142.143 14.0926 141.007C14.0926 139.871 13.7486 139.007 13.0606 138.415C12.3726 137.807 11.4446 137.503 10.2766 137.503H8.74065C7.57265 137.503 6.64465 137.807 5.95665 138.415C5.26865 139.007 4.92465 139.871 4.92465 141.007ZM11.1166 112.783C13.3726 112.783 15.0926 113.495 16.2766 114.919C17.4606 116.343 18.0526 118.367 18.0526 120.991C18.0526 123.615 17.4606 125.647 16.2766 127.087C15.0926 128.511 13.3726 129.223 11.1166 129.223H1.25265L1.25265 123.919H11.0446C11.9726 123.919 12.7166 123.671 13.2766 123.175C13.8206 122.679 14.0926 121.959 14.0926 121.015C14.0926 120.071 13.8126 119.351 13.2526 118.855C12.6926 118.343 11.9566 118.087 11.0446 118.087H1.25265L1.25265 112.783H11.1166ZM6.31665 93.5586C7.32465 93.5586 8.23665 93.8306 9.05265 94.3746C9.86865 94.9186 10.4686 95.7106 10.8526 96.7506L17.7646 93.0786L17.7646 99.0306L11.7406 101.959V103.927H17.7646V109.231H1.25265L1.25265 99.1266C1.25265 97.9426 1.48465 96.9346 1.94865 96.1026C2.39665 95.2546 3.01265 94.6226 3.79665 94.2066C4.56465 93.7746 5.40465 93.5586 6.31665 93.5586ZM6.53265 98.9586C6.10065 98.9586 5.74065 99.1026 5.45265 99.3906C5.16465 99.6786 5.02065 100.031 5.02065 100.447L5.02065 103.927H8.06865L8.06865 100.447C8.06865 100.031 7.92465 99.6786 7.63665 99.3906C7.33265 99.1026 6.96465 98.9586 6.53265 98.9586ZM26.9646 142.279C26.9646 140.167 27.3966 138.431 28.2606 137.071C29.1086 135.711 30.3726 135.015 32.0526 134.983H32.3406V139.951H32.2446C31.7646 139.951 31.3646 140.127 31.0446 140.479C30.7246 140.831 30.5646 141.367 30.5646 142.087C30.5646 142.791 30.6686 143.335 30.8766 143.719C31.0846 144.087 31.3406 144.271 31.6446 144.271C32.0766 144.271 32.3966 144.015 32.6046 143.503C32.8126 142.991 33.0286 142.167 33.2526 141.031C33.5246 139.703 33.8126 138.615 34.1166 137.767C34.4046 136.903 34.8846 136.151 35.5566 135.511C36.2286 134.871 37.1406 134.543 38.2926 134.527C40.2446 134.527 41.6926 135.191 42.6366 136.519C43.5806 137.831 44.0526 139.591 44.0526 141.799C44.0526 144.375 43.6206 146.383 42.7566 147.823C41.8926 149.247 40.3646 149.959 38.1726 149.959V144.943C39.0046 144.943 39.5646 144.727 39.8526 144.295C40.1246 143.863 40.2606 143.191 40.2606 142.279C40.2606 141.607 40.1886 141.055 40.0446 140.623C39.9006 140.175 39.6046 139.951 39.1566 139.951C38.7566 139.951 38.4606 140.199 38.2686 140.695C38.0606 141.175 37.8446 141.967 37.6206 143.071C37.3326 144.415 37.0366 145.527 36.7326 146.407C36.4126 147.287 35.8926 148.055 35.1726 148.711C34.4526 149.367 33.4766 149.695 32.2446 149.695C30.4366 149.695 29.1086 148.999 28.2606 147.607C27.3966 146.199 26.9646 144.423 26.9646 142.279ZM31.4766 122.391H43.7646V127.695H31.4766L31.4766 133.119H27.2526L27.2526 116.991H31.4766V122.391ZM43.7646 105.151L41.4366 105.847V111.631L43.7646 112.327V117.751L27.2526 111.727V105.559L43.7646 99.535V105.151ZM37.7406 110.527V106.951L31.8606 108.679V108.775L37.7406 110.527ZM32.3166 81.8633C33.3246 81.8633 34.2366 82.1353 35.0526 82.6793C35.8686 83.2233 36.4686 84.0153 36.8526 85.0553L43.7646 81.3833L43.7646 87.3353L37.7406 90.2633V92.2313H43.7646V97.5353H27.2526V87.4313C27.2526 86.2473 27.4846 85.2393 27.9486 84.4073C28.3966 83.5593 29.0126 82.9273 29.7966 82.5113C30.5646 82.0793 31.4046 81.8633 32.3166 81.8633ZM32.5326 87.2633C32.1006 87.2633 31.7406 87.4073 31.4526 87.6953C31.1646 87.9833 31.0206 88.3353 31.0206 88.7513V92.2313H34.0686V88.7513C34.0686 88.3353 33.9246 87.9833 33.6366 87.6953C33.3326 87.4073 32.9646 87.2633 32.5326 87.2633ZM26.9646 71.9196C26.9646 69.8076 27.3966 68.0716 28.2606 66.7116C29.1086 65.3516 30.3726 64.6556 32.0526 64.6236H32.3406V69.5916H32.2446C31.7646 69.5916 31.3646 69.7676 31.0446 70.1196C30.7246 70.4716 30.5646 71.0076 30.5646 71.7276C30.5646 72.4316 30.6686 72.9756 30.8766 73.3596C31.0846 73.7276 31.3406 73.9116 31.6446 73.9116C32.0766 73.9116 32.3966 73.6556 32.6046 73.1436C32.8126 72.6316 33.0286 71.8076 33.2526 70.6716C33.5246 69.3436 33.8126 68.2556 34.1166 67.4076C34.4046 66.5436 34.8846 65.7916 35.5566 65.1516C36.2286 64.5116 37.1406 64.1836 38.2926 64.1676C40.2446 64.1676 41.6926 64.8316 42.6366 66.1596C43.5806 67.4716 44.0526 69.2316 44.0526 71.4396C44.0526 74.0156 43.6206 76.0236 42.7566 77.4636C41.8926 78.8876 40.3646 79.5996 38.1726 79.5996V74.5836C39.0046 74.5836 39.5646 74.3676 39.8526 73.9356C40.1246 73.5036 40.2606 72.8316 40.2606 71.9196C40.2606 71.2476 40.1886 70.6956 40.0446 70.2636C39.9006 69.8156 39.6046 69.5916 39.1566 69.5916C38.7566 69.5916 38.4606 69.8396 38.2686 70.3356C38.0606 70.8156 37.8446 71.6076 37.6206 72.7116C37.3326 74.0556 37.0366 75.1676 36.7326 76.0476C36.4126 76.9276 35.8926 77.6956 35.1726 78.3516C34.4526 79.0076 33.4766 79.3356 32.2446 79.3356C30.4366 79.3356 29.1086 78.6396 28.2606 77.2476C27.3966 75.8396 26.9646 74.0636 26.9646 71.9196ZM43.7646 50.3993H37.5006V56.2313H43.7646V61.5353L27.2526 61.5353V56.2313H33.2766V50.3993H27.2526V45.0953L43.7646 45.0953V50.3993ZM43.7646 41.3031L27.2526 41.3031V35.9991L43.7646 35.9991V41.3031ZM27.2526 22.951C27.2526 21.927 27.4926 21.015 27.9726 20.215C28.4366 19.415 29.0846 18.791 29.9166 18.343C30.7326 17.895 31.6526 17.671 32.6766 17.671H32.9886C34.0126 17.671 34.9406 17.895 35.7726 18.343C36.6046 18.791 37.2606 19.415 37.7406 20.215C38.2046 21.015 38.4366 21.927 38.4366 22.951V26.911H43.7646V32.215L27.2526 32.215V22.951ZM34.5726 26.911V24.727C34.5726 24.167 34.4286 23.751 34.1406 23.479C33.8526 23.191 33.4606 23.047 32.9646 23.047H32.7726C32.2606 23.047 31.8686 23.191 31.5966 23.479C31.3086 23.751 31.1646 24.167 31.1646 24.727V26.911H34.5726ZM26.9646 7.95865C26.9646 5.84665 27.3966 4.11065 28.2606 2.75065C29.1086 1.39065 30.3726 0.694654 32.0526 0.662653H32.3406L32.3406 5.63065H32.2446C31.7646 5.63065 31.3646 5.80665 31.0446 6.15865C30.7246 6.51065 30.5646 7.04665 30.5646 7.76665C30.5646 8.47065 30.6686 9.01465 30.8766 9.39865C31.0846 9.76665 31.3406 9.95065 31.6446 9.95065C32.0766 9.95065 32.3966 9.69465 32.6046 9.18265C32.8126 8.67065 33.0286 7.84665 33.2526 6.71065C33.5246 5.38265 33.8126 4.29465 34.1166 3.44665C34.4046 2.58265 34.8846 1.83065 35.5566 1.19065C36.2286 0.550653 37.1406 0.222653 38.2926 0.206653C40.2446 0.206653 41.6926 0.870653 42.6366 2.19865C43.5806 3.51065 44.0526 5.27065 44.0526 7.47865C44.0526 10.0547 43.6206 12.0627 42.7566 13.5027C41.8926 14.9267 40.3646 15.6387 38.1726 15.6387V10.6227C39.0046 10.6227 39.5646 10.4067 39.8526 9.97465C40.1246 9.54265 40.2606 8.87065 40.2606 7.95865C40.2606 7.28665 40.1886 6.73465 40.0446 6.30265C39.9006 5.85465 39.6046 5.63065 39.1566 5.63065C38.7566 5.63065 38.4606 5.87865 38.2686 6.37465C38.0606 6.85465 37.8446 7.64665 37.6206 8.75065C37.3326 10.0947 37.0366 11.2067 36.7326 12.0867C36.4126 12.9667 35.8926 13.7347 35.1726 14.3907C34.4526 15.0467 33.4766 15.3747 32.2446 15.3747C30.4366 15.3747 29.1086 14.6787 28.2606 13.2867C27.3966 11.8787 26.9646 10.1027 26.9646 7.95865Z" fill="#212121"/>
</svg>
